<?xml version="1.0" standalone="no"?>
<!DOCTYPE svg PUBLIC "-//W3C//DTD SVG 20010904//EN"
 "http://www.w3.org/TR/2001/REC-SVG-20010904/DTD/svg10.dtd">
<svg version="1.0" xmlns="http://www.w3.org/2000/svg"
 width="800.000000pt" height="805.000000pt" viewBox="0 0 800.000000 805.000000"
 preserveAspectRatio="xMidYMid meet">

<g transform="translate(0.000000,805.000000) scale(0.100000,-0.100000)"
fill="#000000" stroke="none">
<path d="M3775 8043 c-522 -35 -1084 -189 -1590 -438 -1140 -561 -1885 -1516
-2110 -2705 -98 -515 -98 -1126 1 -1657 207 -1126 864 -2060 1867 -2657 418
-249 919 -440 1382 -525 259 -48 348 -55 660 -55 323 0 415 9 691 69 797 172
1570 599 2164 1194 592 594 971 1327 1104 2134 36 214 45 320 52 577 21 754
-143 1461 -479 2065 -76 136 -244 387 -343 510 -103 128 -410 440 -534 542
-665 549 -1499 878 -2390 943 -126 9 -359 11 -475 3z m583 -168 c610 -62 1198
-258 1717 -571 1019 -616 1640 -1614 1749 -2811 28 -304 18 -743 -24 -1008
-88 -570 -293 -1086 -618 -1560 -640 -934 -1727 -1602 -2847 -1751 -175 -23
-508 -23 -710 0 -731 83 -1476 395 -2058 862 -735 588 -1199 1385 -1351 2319
-46 281 -55 412 -52 770 3 341 13 460 57 705 175 979 712 1793 1555 2358 549
369 1221 616 1867 686 167 19 539 19 715 1z"/>
<path d="M1610 4172 l0 -2532 53 -41 c218 -174 457 -245 737 -219 153 14 345
62 635 160 294 100 405 129 516 137 179 12 320 -58 409 -205 14 -23 28 -42 31
-42 4 0 29 31 57 70 97 132 185 175 357 175 129 -1 210 -20 490 -116 347 -119
513 -161 696 -179 117 -11 258 -1 364 27 124 32 308 133 398 216 l27 26 0
2526 c0 1997 -3 2524 -13 2519 -6 -4 -39 -31 -72 -59 -96 -82 -130 -104 -228
-150 -281 -131 -519 -113 -1102 80 -334 111 -412 129 -565 128 -102 0 -136 -4
-184 -22 -72 -26 -139 -68 -185 -115 l-34 -35 -54 48 c-141 126 -317 157 -570
102 -49 -10 -212 -60 -363 -109 -372 -123 -469 -146 -649 -158 -238 -16 -452
53 -635 203 -32 26 -71 59 -87 72 l-29 24 0 -2531z m2146 2397 c64 -24 157
-105 204 -179 l32 -50 45 63 c87 118 163 168 285 188 126 21 270 -9 638 -131
135 -45 298 -94 362 -110 361 -88 645 -57 899 100 l49 30 2 -2393 c3 -2295 2
-2393 -15 -2410 -10 -10 -48 -38 -85 -61 -169 -109 -352 -152 -578 -134 -156
12 -321 56 -689 181 -405 138 -585 151 -766 56 -30 -17 -73 -48 -95 -69 -21
-22 -43 -39 -48 -40 -4 0 -31 21 -59 46 -136 122 -304 152 -546 98 -64 -14
-242 -68 -397 -119 -401 -134 -467 -148 -684 -149 -140 -1 -190 3 -248 18 -85
21 -215 85 -295 145 l-57 42 0 2394 c0 1317 2 2395 4 2395 2 0 33 -18 69 -39
222 -135 496 -173 801 -110 119 25 151 34 486 144 224 73 334 102 445 119 58
8 186 -5 241 -25z"/>
<path d="M3637 5530 c-27 -5 -135 -36 -241 -69 -240 -76 -307 -91 -421 -91
-139 0 -260 40 -360 120 l-40 32 -3 -1448 c-2 -1359 -1 -1449 15 -1466 24 -27
136 -88 203 -112 42 -14 82 -19 175 -19 137 -1 206 14 427 87 332 111 439 112
544 6 l47 -48 47 47 c32 32 64 52 100 64 98 32 170 21 425 -63 285 -94 427
-115 565 -86 78 16 195 68 243 108 l27 23 0 1445 c0 795 0 1449 0 1453 0 5
-19 -7 -42 -26 -109 -88 -223 -122 -388 -114 -122 6 -159 15 -465 112 -138 44
-159 48 -255 49 -117 1 -162 -14 -227 -77 l-32 -30 -20 24 c-10 14 -43 38 -72
54 -43 23 -68 29 -129 31 -41 2 -97 -1 -123 -6z m354 -594 c10 -23 22 -78 28
-124 6 -45 15 -91 21 -101 13 -25 110 -47 139 -32 11 6 42 49 70 95 47 78 109
146 131 146 19 0 10 -97 -15 -171 -26 -76 -34 -127 -21 -147 4 -7 26 -23 50
-37 53 -31 68 -27 169 46 77 56 129 82 158 77 18 -3 18 -4 0 -43 -10 -22 -50
-77 -89 -123 -40 -46 -72 -91 -72 -101 0 -21 55 -100 75 -107 7 -3 56 4 109
15 99 22 206 28 206 12 0 -19 -74 -73 -153 -112 -45 -23 -90 -48 -99 -57 -20
-17 -23 -64 -7 -110 12 -34 20 -38 156 -66 81 -17 146 -44 137 -57 -16 -26
-75 -42 -176 -48 -120 -7 -133 -14 -157 -83 -17 -51 -7 -65 93 -137 78 -56
116 -96 116 -121 0 -20 -77 -9 -174 25 -55 19 -108 35 -119 35 -30 0 -87 -65
-87 -99 0 -17 21 -64 50 -114 57 -94 75 -157 45 -157 -28 0 -104 53 -165 115
-59 60 -81 66 -142 41 -58 -24 -60 -30 -52 -173 5 -102 3 -132 -8 -146 -13
-18 -16 -17 -44 16 -17 19 -47 77 -68 130 -20 52 -44 98 -52 101 -9 3 -39 6
-68 6 -64 0 -75 -10 -106 -100 -28 -82 -52 -129 -80 -158 -37 -39 -45 -16 -45
131 -1 73 -2 137 -3 144 -3 18 -93 55 -119 48 -12 -3 -60 -43 -105 -89 -79
-79 -143 -125 -156 -111 -12 12 21 102 69 185 27 47 49 93 49 103 0 9 -16 35
-36 57 -46 50 -69 51 -170 5 -124 -56 -194 -73 -194 -46 0 18 74 100 118 131
73 52 102 82 102 107 0 29 -27 95 -43 105 -7 4 -60 8 -118 8 -99 0 -169 12
-169 29 0 10 40 46 65 58 11 6 54 18 95 28 101 23 116 34 124 88 10 68 -5 90
-87 123 -212 85 -205 150 12 118 53 -8 106 -12 117 -9 28 6 64 67 64 106 0 23
-17 47 -75 110 -69 74 -97 120 -81 136 13 14 103 -20 171 -63 93 -59 107 -62
156 -30 65 43 66 56 24 186 -36 113 -40 150 -18 157 19 7 92 -66 141 -140 51
-78 72 -90 133 -75 59 14 76 36 83 110 14 130 43 217 68 202 5 -4 18 -25 29
-48z"/>
</g>
</svg>
